<svg width="96" height="113" viewBox="0 0 96 113" fill="none" xmlns="http://www.w3.org/2000/svg">
<path d="M56.9897 100.83C56.9897 102.175 58.0784 103.264 59.4238 103.264C60.7692 103.264 61.8579 102.175 61.8579 100.83V73.4576L59.6375 69.2238L56.9897 74.8486V100.83Z" fill="#00CCB2"/>
<path d="M91.067 91.0932C91.067 92.4386 92.1556 93.5273 93.501 93.5273C94.8464 93.5273 95.9351 92.4386 95.9351 91.0932V63.721L93.6223 59.5138L91.067 65.1122V91.0932Z" fill="#00AB94"/>
<path d="M52.1215 113C46.7518 113 42.3852 108.633 42.3852 103.264C42.3852 97.8938 46.7518 93.5272 52.1215 93.5272C57.4913 93.5272 61.8579 97.8938 61.8579 103.264C61.8579 108.633 57.4913 113 52.1215 113Z" fill="#00EED0"/>
<path d="M86.1988 103.264C80.829 103.264 76.4624 98.897 76.4624 93.5273C76.4624 88.1575 80.829 83.7909 86.1988 83.7909C91.5686 83.7909 95.9352 88.1575 95.9352 93.5273C95.9352 98.897 91.5686 103.264 86.1988 103.264Z" fill="#00CCB2"/>
<path d="M94.9615 50.2003C94.3773 49.7623 93.5499 49.6161 92.8195 49.8107L76.4624 54.4843L58.7423 59.547C57.7201 59.8391 56.9897 60.8128 56.9897 61.8839V74.8331L61.8579 73.4702L76.4624 69.2834L91.067 65.0968L95.9352 63.7338V52.1477C95.9352 51.3687 95.5944 50.6873 94.9615 50.2003Z" fill="#00EED0"/>
<path d="M95.9352 52.1477V63.734L91.067 65.0969L76.4624 69.2835V54.4844L92.8195 49.8108C93.5499 49.6162 94.3773 49.7625 94.9615 50.2004C95.5944 50.6872 95.9352 51.3686 95.9352 52.1477Z" fill="#00CCB2"/>
<path d="M24.6515 105.444L65.5377 35.0445C66.4633 33.4506 65.1505 31.4892 63.3241 31.7376L36.1277 35.4342L42.6257 1.31915C42.8448 0.16909 41.362 -0.489891 40.6552 0.443199L0.45514 53.5074C-0.715828 55.0529 0.524082 57.2505 2.45237 57.0476L32.4363 53.8914L22.6067 104.678C22.3696 105.903 24.0248 106.523 24.6515 105.444Z" fill="#FFDC64"/>
<path d="M13.0265 49.7468C12.2756 49.8068 11.7769 48.986 12.176 48.3473L42.2326 0.256807C41.7854 -0.097009 41.0815 -0.119782 40.6552 0.442929L0.45514 53.5071C-0.715829 55.0528 0.524082 57.2502 2.45237 57.0473L32.4363 53.8911L22.6067 104.678C22.4742 105.363 22.9363 105.845 23.4764 105.96L40.3203 52.6604C41.1099 50.1621 39.1178 47.6593 36.5061 47.8684L13.0265 49.7468Z" fill="#FFC850"/>
</svg>
