<svg width="1378" height="664" viewBox="0 0 1378 664" fill="none" xmlns="http://www.w3.org/2000/svg">
<g opacity="0.25">
<path d="M99.4043 441.015C103.658 455.397 95.9532 470.681 82.2069 475.131C79.4175 476.034 76.5482 474.45 75.6853 471.532C74.8222 468.614 76.3353 465.612 79.1248 464.709C87.3928 462.032 92.0013 452.889 89.4432 444.239C87.9637 439.237 84.4165 435.36 79.6375 433.596C69.8809 430.13 58.4923 425.33 48.6767 418.343L73.0975 500.919C73.9604 503.837 72.4474 506.839 69.658 507.742C66.8686 508.645 63.9993 507.061 63.1364 504.144L33.6508 404.442C32.9726 402.149 33.7816 399.717 35.6573 398.311C36.1253 398.045 36.5922 397.78 37.0903 397.619C38.6837 397.103 40.5243 397.42 41.9516 398.557L50.3108 405.786C59.906 413.871 72.0189 419.276 83.0177 423.252C90.8418 426.086 96.9693 432.781 99.4043 441.015Z" fill="#FEA832"/>
<path d="M99.4044 441.015C103.658 455.397 95.9533 470.681 82.207 475.131C79.4176 476.034 76.5483 474.45 75.6854 471.533C74.8223 468.614 76.3355 465.612 79.1249 464.709C87.3929 462.033 92.0014 452.889 89.4433 444.24C87.9638 439.237 84.4166 435.361 79.6376 433.596C69.881 430.131 58.4924 425.33 48.6768 418.344L73.0976 500.919C73.9605 503.837 72.4475 506.839 69.6581 507.742L37.0904 397.619C38.6838 397.103 40.5244 397.42 41.9517 398.557L50.3109 405.786C59.9062 413.871 72.0191 419.276 83.0178 423.252C90.8419 426.087 96.9694 432.781 99.4044 441.015Z" fill="#FF8700"/>
<path d="M64.0794 488.879C59.1989 485.662 52.9875 484.59 47.0112 486.525C36.0543 490.072 29.5308 502.461 32.9212 513.925C36.3114 525.389 48.3828 531.759 59.3396 528.212C65.3159 526.277 69.863 521.721 72.1546 516.184C74.2633 511.504 74.6386 506.13 73.0975 500.919C71.5565 495.708 68.3456 491.494 64.0794 488.879Z" fill="#FFD400"/>
<path d="M73.0977 500.919C74.6388 506.13 74.2635 511.504 72.1548 516.184L64.0796 488.879C68.3458 491.495 71.5567 495.708 73.0977 500.919Z" fill="#FDBF00"/>
<path d="M221.5 116C237.24 116 250 103.24 250 87.5C250 71.7599 237.24 59 221.5 59C205.76 59 193 71.7599 193 87.5C193 103.24 205.76 116 221.5 116Z" fill="#4CAF50"/>
<path d="M233.071 100.933V100.935C232.589 100.935 232.29 100.785 231.841 100.522C224.671 96.1992 216.327 96.0187 208.086 97.7073C207.637 97.8237 207.05 98.0066 206.718 98.0066C205.602 98.0066 204.901 97.1207 204.901 96.1897C204.901 95.0046 205.602 94.4417 206.466 94.2589C215.878 92.1807 225.497 92.3636 233.7 97.2703C234.401 97.7192 234.817 98.1206 234.817 99.1656C234.817 100.206 234 100.933 233.071 100.933Z" fill="#212121"/>
<path d="M236.166 93.3968H236.163C235.565 93.3968 235.163 93.1332 234.748 92.9147C227.563 88.6634 216.857 86.9487 207.328 89.5351C206.777 89.6847 206.478 89.8343 205.96 89.8343C204.73 89.8343 203.733 88.8344 203.733 87.6066C203.733 86.3787 204.331 85.5617 205.514 85.2292C208.708 84.3314 211.972 83.6641 216.752 83.6641C224.21 83.6641 231.416 85.5142 237.094 88.8938C238.025 89.4448 238.393 90.1597 238.393 91.1572C238.382 92.3946 237.417 93.3968 236.166 93.3968V93.3968Z" fill="#212121"/>
<path d="M203.802 75.6201C207.846 74.435 212.375 73.8745 217.306 73.8745C225.694 73.8745 234.487 75.6201 240.911 79.3679C241.809 79.8856 242.393 80.5981 242.393 81.9638C242.393 83.5265 241.127 84.6404 239.728 84.6404L239.726 84.638C239.127 84.638 238.759 84.4884 238.241 84.1891C230.062 79.3061 215.43 78.1353 205.963 80.7786C205.547 80.8926 205.029 81.0755 204.478 81.0755C202.961 81.0755 201.802 79.8904 201.802 78.3633C201.802 76.8029 202.768 75.9194 203.802 75.6201V75.6201Z" fill="#212121"/>
<g clip-path="url(#clip0)">
<path d="M1377.2 572.009C1376.99 572.009 1376.79 571.935 1376.63 571.788L1368.69 564.289C1368.37 563.994 1368.37 563.516 1368.69 563.221C1369 562.926 1369.5 562.926 1369.82 563.221L1377.77 570.72C1378.08 571.014 1378.08 571.493 1377.77 571.787C1377.61 571.935 1377.4 572.009 1377.2 572.009V572.009Z" fill="#563E2F"/>
<path d="M1375.03 573.342C1374.82 573.342 1374.62 573.268 1374.46 573.121L1367.27 566.339C1366.96 566.044 1366.96 565.566 1367.27 565.271C1367.58 564.976 1368.09 564.976 1368.4 565.271L1375.59 572.053C1375.91 572.348 1375.91 572.826 1375.59 573.121C1375.44 573.268 1375.23 573.342 1375.03 573.342V573.342Z" fill="#563E2F"/>
<path d="M1372.76 574.573C1372.55 574.573 1372.35 574.499 1372.19 574.352L1365.97 568.479C1365.65 568.184 1365.65 567.706 1365.97 567.411C1366.28 567.116 1366.79 567.116 1367.1 567.411L1373.32 573.284C1373.64 573.578 1373.64 574.057 1373.32 574.352C1373.17 574.499 1372.96 574.573 1372.76 574.573Z" fill="#563E2F"/>
<path d="M1370.53 573.576L1376.79 569.802C1377.83 569.177 1378.23 567.923 1377.71 566.869C1377.7 566.854 1377.69 566.839 1377.69 566.823C1376.91 565.287 1378.59 564.696 1377.39 563.572C1376.21 562.46 1375.58 564.029 1373.95 563.296C1373.93 563.289 1373.91 563.281 1373.9 563.274C1372.78 562.785 1371.45 563.158 1370.79 564.137L1366.79 570.049L1370.53 573.576Z" fill="#99573D"/>
<path d="M1377.71 566.869C1377.7 566.854 1377.69 566.839 1377.69 566.823C1376.91 565.287 1378.59 564.697 1377.39 563.572C1377.02 563.216 1376.7 563.136 1376.38 563.165C1376.26 564.02 1375.16 564.933 1375.74 566.074C1375.75 566.089 1375.74 566.074 1375.75 566.089C1376.27 567.143 1375.87 568.396 1374.83 569.021L1369.17 572.295L1370.53 573.576L1376.79 569.802C1377.83 569.177 1378.23 567.923 1377.71 566.869V566.869Z" fill="#894C37"/>
<path d="M1330.97 607.363C1335.28 611.421 1342.65 615.847 1349.6 610.615C1354.25 607.111 1353.11 603.503 1354.38 600.615C1355.64 597.727 1357.76 597.972 1360.85 595.177C1364.71 591.681 1364.76 585.926 1359.23 580.706C1353.7 575.487 1347.6 575.534 1343.89 579.183C1340.93 582.099 1341.19 584.091 1338.13 585.286C1335.07 586.481 1331.24 585.406 1327.53 589.795C1321.98 596.348 1326.67 603.306 1330.97 607.363V607.363Z" fill="#FCC472"/>
<path d="M1354.38 600.615C1355.64 597.727 1357.76 597.972 1360.85 595.177C1364.71 591.68 1364.76 585.926 1359.23 580.706C1359 580.488 1358.77 580.281 1358.54 580.081C1363.39 585.121 1363.19 590.545 1359.49 593.896C1356.4 596.69 1354.28 596.446 1353.02 599.334C1351.75 602.221 1352.89 605.83 1348.24 609.334C1341.65 614.295 1334.68 610.571 1330.31 606.712C1330.53 606.936 1330.75 607.154 1330.97 607.363C1335.28 611.421 1342.65 615.847 1349.6 610.616C1354.25 607.111 1353.11 603.503 1354.38 600.615V600.615Z" fill="#F4B158"/>
<path d="M1350.99 595.8C1353.13 593.777 1353.13 590.498 1350.99 588.476C1348.85 586.453 1345.37 586.453 1343.23 588.476C1341.08 590.498 1341.08 593.777 1343.23 595.8C1345.37 597.822 1348.85 597.822 1350.99 595.8Z" fill="#563E2F"/>
<path d="M1351 588.476C1350.76 588.257 1350.52 588.063 1350.26 587.892C1351.75 589.912 1351.55 592.716 1349.64 594.52C1347.72 596.324 1344.75 596.518 1342.61 595.104C1342.79 595.348 1343 595.583 1343.23 595.801C1345.37 597.824 1348.85 597.824 1351 595.801C1353.14 593.778 1353.14 590.499 1351 588.476V588.476Z" fill="#4C362A"/>
<path d="M1342.65 603.988L1334.55 596.351C1334.13 595.949 1334.13 595.297 1334.55 594.895L1335.46 594.038C1335.89 593.636 1336.58 593.636 1337 594.038L1345.1 601.675C1345.53 602.077 1345.53 602.729 1345.1 603.131L1344.19 603.987C1343.77 604.39 1343.07 604.39 1342.65 603.988V603.988Z" fill="#563E2F"/>
<path d="M1345.1 601.675L1343.74 600.394C1344.17 600.796 1344.17 601.447 1343.74 601.849L1342.83 602.706C1342.41 603.108 1341.72 603.108 1341.29 602.706L1342.65 603.987C1343.07 604.389 1343.77 604.389 1344.19 603.987L1345.1 603.131C1345.53 602.729 1345.53 602.077 1345.1 601.675V601.675Z" fill="#4C362A"/>
<path d="M1370.53 573.576L1367.94 576.019L1366.81 577.087L1364.2 579.55L1363.06 580.617L1359.32 584.148L1356.71 586.611L1355.58 587.679L1352.39 590.692C1352.14 589.88 1351.67 589.115 1351 588.476C1350.32 587.837 1349.51 587.4 1348.65 587.165L1351.84 584.152L1352.97 583.084L1355.58 580.621L1359.33 577.09L1360.46 576.023L1364.2 572.492L1366.79 570.049L1370.53 573.576Z" fill="#725539"/>
<path d="M1352.39 590.692L1370.53 573.576L1369.17 572.295L1351.47 588.99C1351.9 589.51 1352.2 590.088 1352.39 590.692Z" fill="#6B4C32"/>
<path d="M1363.06 573.563L1364.2 572.495L1367.93 576.021L1366.8 577.089L1363.06 573.563Z" fill="#563E2F"/>
<path d="M1359.31 577.076L1360.45 576.008L1364.18 579.535L1363.05 580.602L1359.31 577.076Z" fill="#563E2F"/>
<path d="M1355.58 580.623L1356.71 579.554L1360.45 583.081L1359.32 584.149L1355.58 580.623Z" fill="#563E2F"/>
<path d="M1351.84 584.169L1352.97 583.102L1356.71 586.628L1355.58 587.696L1351.84 584.169Z" fill="#563E2F"/>
</g>
<g clip-path="url(#clip1)">
<path d="M1256.98 56.9184C1253.53 57.7826 1249.1 58.111 1244.11 57.8362L1244.11 57.8464C1240.27 57.6296 1236.12 57.0756 1231.81 56.1357C1227.51 55.1958 1223.51 53.9668 1219.93 52.5636L1219.93 52.5534C1215.28 50.7239 1211.39 48.5773 1208.62 46.3528C1205.23 43.6411 1203.49 40.8184 1204.05 38.282L1200.92 52.6005C1200.69 53.6437 1200.86 54.7296 1201.36 55.8371C1202.54 58.473 1205.65 61.2319 1210.1 63.7254C1213.3 65.5169 1217.18 67.1791 1221.52 68.5465C1223.79 69.2675 1226.2 69.9105 1228.69 70.4542C1231.17 70.9979 1233.63 71.4159 1235.99 71.7074C1240.51 72.277 1244.73 72.3846 1248.38 72.0897C1253.47 71.6786 1257.45 70.4693 1259.62 68.5642C1260.54 67.7693 1261.14 66.8506 1261.37 65.8074L1264.5 51.4889C1263.94 54.0253 1261.19 55.8664 1256.98 56.9184Z" fill="#B27946"/>
<path d="M1207.64 50.8531C1208.74 51.0952 1209.45 52.2138 1209.2 53.3388C1209.03 54.1161 1208.45 54.6965 1207.75 54.9077C1207.44 54.9995 1207.08 55.0189 1206.74 54.9441C1206.12 54.8076 1205.62 54.3877 1205.35 53.8461C1205.14 53.4367 1205.07 52.9493 1205.17 52.4583C1205.42 51.3333 1206.53 50.6109 1207.64 50.8531V50.8531Z" fill="#FCD770"/>
<path d="M1219.05 56.5625C1220.16 56.8047 1220.87 57.9233 1220.62 59.0483C1220.46 59.8153 1219.89 60.3877 1219.19 60.6114C1218.87 60.7112 1218.51 60.7306 1218.16 60.6535C1217.61 60.5325 1217.15 60.1974 1216.87 59.7398C1216.58 59.2901 1216.47 58.7303 1216.59 58.1678C1216.84 57.0428 1217.95 56.3204 1219.05 56.5625Z" fill="#FCD770"/>
<path d="M1231.58 64.0248C1231.13 64.324 1230.58 64.4389 1230.03 64.3179C1229.47 64.1968 1229.02 63.8617 1228.74 63.4041C1228.45 62.9544 1228.34 62.3946 1228.46 61.8321C1228.7 60.7071 1229.81 59.9847 1230.92 60.2269C1232.03 60.469 1232.73 61.5876 1232.49 62.7126C1232.37 63.2751 1232.03 63.738 1231.58 64.0248Z" fill="#FCD770"/>
<path d="M1243.89 65.6434C1243.45 65.9426 1242.89 66.0576 1242.34 65.9365C1241.99 65.8595 1241.68 65.6948 1241.42 65.4673C1240.88 64.9751 1240.6 64.2178 1240.77 63.4508C1241.02 62.3257 1242.13 61.6034 1243.23 61.8455C1244.34 62.0876 1245.05 63.2062 1244.8 64.3312C1244.68 64.8937 1244.35 65.3567 1243.89 65.6434Z" fill="#FCD770"/>
<path d="M1256.83 65.0938C1256.35 65.4726 1255.73 65.646 1255.1 65.5095C1254.76 65.4347 1254.45 65.27 1254.2 65.0549C1253.65 64.5707 1253.36 63.8011 1253.53 63.0238C1253.78 61.8987 1254.89 61.1764 1255.99 61.4185C1257.1 61.6606 1257.81 62.7792 1257.56 63.9042C1257.46 64.3952 1257.19 64.8077 1256.83 65.0938Z" fill="#FCD770"/>
<path d="M1204.05 38.282L1205.39 32.1455C1204.03 38.3638 1216.46 46.3519 1233.16 49.9992C1249.85 53.6465 1264.48 51.5708 1265.84 45.3525L1264.5 51.489C1263.94 54.0254 1261.19 55.8664 1256.98 56.9184C1253.53 57.7826 1249.1 58.1111 1244.11 57.8362L1244.11 57.8464C1240.27 57.6296 1236.12 57.0756 1231.81 56.1357C1227.51 55.1958 1223.51 53.9669 1219.93 52.5636L1219.93 52.5534C1215.28 50.724 1211.39 48.5774 1208.62 46.3528C1205.23 43.6412 1203.49 40.8184 1204.05 38.282Z" fill="#D3A06C"/>
<path d="M1247.46 30.1494L1241.99 28.4514C1240.71 28.1083 1239.4 27.7893 1238.07 27.4987C1221.38 23.8514 1206.75 25.9272 1205.39 32.1455C1204.03 38.3638 1216.46 46.3519 1233.16 49.9992C1249.85 53.6465 1264.48 51.5708 1265.84 45.3525C1266.93 40.3717 1259.17 34.2627 1247.46 30.1494V30.1494Z" fill="#DFB28B"/>
<path d="M1266.08 20.0845C1265.84 21.1993 1265.26 22.1881 1264.48 22.9502C1263.69 23.7101 1262.68 24.239 1261.57 24.436C1256.77 25.2617 1252.18 27.0674 1248.08 29.7402L1247.46 30.1495L1238.57 35.9446C1238.18 34.488 1237.36 33.183 1236.22 32.216L1241.99 28.4516L1245.73 26.0116C1247.79 24.6712 1249.69 23.1356 1251.42 21.4149C1253.16 19.7045 1254.73 17.8091 1256.1 15.7608C1256.74 14.818 1257.63 14.1028 1258.64 13.6909C1259.65 13.2892 1260.77 13.1704 1261.87 13.4103C1263.37 13.7383 1264.59 14.6469 1265.35 15.8524C1266.11 17.058 1266.41 18.5606 1266.08 20.0845V20.0845Z" fill="#AAB2BD"/>
<path d="M1238.57 35.9444C1238.86 37.0363 1238.9 38.2229 1238.64 39.4093C1237.77 43.3674 1233.92 45.8796 1230.02 45.0278C1226.12 44.1759 1223.67 40.2857 1224.53 36.3277C1225.4 32.3697 1229.25 29.8574 1233.15 30.7093C1234.32 30.9646 1235.36 31.4931 1236.22 32.2158C1237.36 33.1828 1238.18 34.4878 1238.57 35.9444Z" fill="#E6E9ED"/>
<path d="M1249.81 29.8979C1253.5 27.6904 1257.5 26.196 1261.74 25.4664C1264.4 25.0061 1266.5 22.9779 1267.09 20.3003C1267.87 16.7095 1265.64 13.1611 1262.1 12.3883C1259.46 11.812 1256.77 12.907 1255.25 15.18C1252.57 19.172 1249.18 22.5202 1245.18 25.1303L1241.81 27.332C1240.65 27.0278 1239.48 26.7351 1238.29 26.476C1220.78 22.6497 1205.88 25.0433 1204.38 31.9254L1199.91 52.3804C1198.41 59.2625 1210.95 67.6507 1228.46 71.477C1245.98 75.3033 1260.87 72.9097 1262.38 66.0276L1266.85 45.5726C1267.98 40.3801 1261.34 34.3334 1249.81 29.8979V29.8979ZM1246.29 26.8877C1250.53 24.1235 1254.12 20.5769 1256.95 16.3486C1258 14.7895 1259.84 14.0384 1261.65 14.4338C1264.08 14.9636 1265.61 17.3984 1265.07 19.8601C1264.67 21.697 1263.23 23.0881 1261.4 23.4034C1256.44 24.2598 1251.77 26.0949 1247.53 28.8589L1239.09 34.3658C1238.77 33.6527 1238.35 32.989 1237.85 32.3946L1246.29 26.8877ZM1237.63 39.1892C1236.89 42.5735 1233.58 44.7334 1230.24 44.005C1226.91 43.2767 1224.8 39.9321 1225.54 36.5478C1226.28 33.1636 1229.59 31.0037 1232.92 31.732C1236.26 32.4604 1238.37 35.805 1237.63 39.1892ZM1237.85 28.5215C1238.37 28.6362 1238.88 28.7758 1239.4 28.9003L1236.26 30.9478C1235.41 30.3592 1234.44 29.9199 1233.37 29.6865C1228.93 28.7156 1224.51 31.5963 1223.52 36.1076C1222.54 40.619 1225.35 45.0796 1229.8 46.0505C1234.24 47.0215 1238.66 44.1408 1239.64 39.6295C1239.88 38.5453 1239.89 37.4647 1239.72 36.4338L1247.58 31.3066C1258.5 35.2318 1265.73 41.0076 1264.83 45.1324C1263.75 50.0712 1250.86 52.7948 1233.38 48.9765C1215.9 45.1581 1205.32 37.3045 1206.4 32.3656C1207.48 27.4268 1220.37 24.7032 1237.85 28.5215ZM1259.69 66.9913L1258.17 65.0942C1258.35 64.8001 1258.49 64.4793 1258.57 64.1244C1258.86 62.7928 1258.26 61.483 1257.18 60.8041L1257.86 57.7297C1259.71 57.2046 1261.29 56.5184 1262.53 55.681L1260.36 65.5874C1260.25 66.0793 1260.02 66.5479 1259.69 66.9913ZM1254.54 63.2439C1254.66 62.6793 1255.21 62.3198 1255.77 62.4413C1256.33 62.5628 1256.68 63.1196 1256.55 63.6841C1256.43 64.2487 1255.88 64.6083 1255.32 64.4868C1254.77 64.3653 1254.42 63.8085 1254.54 63.2439ZM1255.17 60.3638C1253.91 60.5317 1252.82 61.4721 1252.52 62.8037C1252.35 63.5994 1252.5 64.3855 1252.87 65.0391L1248.46 70.3807L1245.25 65.7688C1245.51 65.4169 1245.71 65.0094 1245.81 64.5512C1246.1 63.2196 1245.5 61.9099 1244.42 61.2309L1244.93 58.9246C1248.93 59.0843 1252.57 58.8536 1255.63 58.257L1255.17 60.3638ZM1243.01 62.8681C1243.57 62.9896 1243.92 63.5464 1243.79 64.111C1243.67 64.6756 1243.12 65.0351 1242.56 64.9136C1242.01 64.7921 1241.66 64.2353 1241.78 63.6708C1241.9 63.1062 1242.45 62.7466 1243.01 62.8681ZM1241.63 66.7988C1241.79 66.8621 1241.95 66.9217 1242.12 66.9591C1242.6 67.0639 1243.07 67.0377 1243.52 66.9232L1246.48 71.1838C1243.94 71.2892 1241.12 71.2068 1238.06 70.9014L1241.63 66.7988ZM1242.41 60.7907C1241.15 60.9586 1240.06 61.8989 1239.76 63.2305C1239.6 64.0068 1239.74 64.7727 1240.09 65.4165L1236.16 69.9308L1232.88 64.2098C1233.17 63.8438 1233.39 63.4174 1233.5 62.9326C1233.79 61.601 1233.19 60.2913 1232.11 59.6123L1232.6 57.3684C1236.16 58.1028 1239.61 58.579 1242.84 58.8096L1242.41 60.7907ZM1229.47 62.0521C1229.59 61.4876 1230.14 61.128 1230.7 61.2495C1231.25 61.371 1231.6 61.9278 1231.48 62.4924C1231.36 63.0569 1230.81 63.4165 1230.25 63.295C1229.69 63.1735 1229.34 62.6167 1229.47 62.0521ZM1230.1 59.1721C1228.83 59.3399 1227.74 60.2803 1227.45 61.6119C1227.35 62.0967 1227.37 62.5764 1227.48 63.0278L1222.11 66.8593L1220.43 61.1195C1221.01 60.6821 1221.46 60.0447 1221.63 59.2685C1221.92 57.9368 1221.32 56.6271 1220.24 55.9482L1220.68 53.9671C1223.71 55.106 1227.04 56.1088 1230.59 56.9282L1230.1 59.1721ZM1218.83 57.5854C1219.39 57.7069 1219.74 58.2637 1219.62 58.8282C1219.49 59.3928 1218.94 59.7524 1218.38 59.6309C1217.83 59.5093 1217.48 58.9525 1217.6 58.388C1217.72 57.8234 1218.27 57.4639 1218.83 57.5854ZM1216.68 61.0598C1217.04 61.3503 1217.46 61.5716 1217.94 61.6764C1218.11 61.7138 1218.28 61.7263 1218.45 61.7344L1219.98 66.9512C1217.08 65.9544 1214.47 64.851 1212.21 63.6946L1216.68 61.0598ZM1218.23 55.5079C1216.97 55.6758 1215.88 56.6161 1215.59 57.9478C1215.49 58.4059 1215.5 58.8596 1215.59 59.2893L1210.75 62.1413L1208.96 55.4451C1209.57 55.0064 1210.04 54.3545 1210.21 53.5588C1210.5 52.2272 1209.9 50.9175 1208.82 50.2385L1209.29 48.1317C1211.82 49.9508 1215.02 51.6756 1218.73 53.2016L1218.23 55.5079ZM1206.18 52.6783C1206.3 52.1138 1206.86 51.7542 1207.41 51.8757C1207.97 51.9972 1208.32 52.554 1208.2 53.1186C1208.07 53.6831 1207.52 54.0427 1206.96 53.9212C1206.41 53.7997 1206.06 53.2429 1206.18 52.6783ZM1206.81 49.7983C1205.55 49.9661 1204.46 50.9065 1204.17 52.2381C1204.09 52.593 1204.09 52.9451 1204.13 53.2872L1201.95 54.3765C1201.83 53.834 1201.82 53.3126 1201.93 52.8206L1204.09 42.9153C1204.87 44.1919 1206.01 45.4725 1207.48 46.7249L1206.81 49.7983ZM1202.78 56.2924L1205.04 55.1575C1205.44 55.5475 1205.94 55.8399 1206.52 55.9667C1206.67 56.0002 1206.82 56.0088 1206.97 56.0182L1208.45 61.5368C1205.75 59.7789 1203.83 57.9759 1202.78 56.2924V56.2924ZM1223.86 68.1639L1228.6 64.7752C1228.95 65.0404 1229.35 65.2417 1229.8 65.3405C1230.26 65.4393 1230.7 65.4238 1231.13 65.3269L1234.03 70.3862C1232.37 70.1304 1230.67 69.8152 1228.91 69.4315C1227.15 69.0478 1225.47 68.6221 1223.86 68.1639ZM1250.8 70.7909L1254.44 66.3887C1254.58 66.4432 1254.72 66.4988 1254.88 66.5323C1255.46 66.6591 1256.03 66.6017 1256.56 66.4131L1258.14 68.3893C1256.49 69.4814 1253.98 70.3171 1250.8 70.7909ZM1232.04 55.113C1214.56 51.2946 1203.98 43.441 1205.06 38.5021L1205.43 36.7788C1208.84 42.3841 1219.4 48.0652 1232.93 51.022C1246.47 53.9788 1258.43 53.2186 1263.87 49.5455L1263.49 51.2689C1262.41 56.2077 1249.51 58.9313 1232.04 55.113Z" fill="black"/>
<path d="M1220.64 11.3992L1222.58 10.6884L1225.83 19.971L1223.89 20.6818L1220.64 11.3992Z" fill="black"/>
<path d="M1230.34 9.73633L1232.36 10.1766L1230.12 20.4041L1228.11 19.9638L1230.34 9.73633Z" fill="black"/>
<path d="M1213.67 15.5225L1215.23 14.1509L1221.95 22.0483L1220.38 23.4199L1213.67 15.5225Z" fill="black"/>
</g>
<g clip-path="url(#clip2)">
<path d="M1037.85 342.973C1035.4 336.014 1029.59 330.503 1022.25 328.188C1019.81 327.417 1017.21 327 1014.5 327C1013.72 327 1012.96 327.034 1012.2 327.102C999.703 328.206 989.889 338.215 989.889 350.359C989.889 352.926 990.327 355.397 991.137 357.709C993.578 364.679 999.389 370.2 1006.73 372.524C1008.48 373.078 1010.31 373.449 1012.2 373.616C1012.96 373.683 1013.73 373.717 1014.5 373.717C1016.79 373.717 1019.05 373.42 1021.23 372.834V365.519L1032.09 360.463L1035.35 358.943L1038.4 355.94C1038.87 354.124 1039.11 352.246 1039.11 350.359C1039.11 347.779 1038.67 345.295 1037.85 342.973V342.973ZM1023 351.181C1022.59 354.998 1019.39 358.042 1015.37 358.427C1015.08 358.454 1014.79 358.468 1014.5 358.468C1009.79 358.468 1005.96 354.83 1005.96 350.359C1005.96 350.065 1005.97 349.775 1006 349.49C1006.43 345.711 1009.6 342.701 1013.58 342.297C1013.88 342.265 1014.19 342.25 1014.5 342.25C1019.21 342.25 1023.04 345.887 1023.04 350.359C1023.04 350.636 1023.03 350.91 1023 351.181Z" fill="#DCF3FF"/>
<path d="M1012.2 373.615C1015.43 373.331 1018.48 372.453 1021.23 371.098V372.833C1019.05 373.42 1016.79 373.717 1014.5 373.717C1013.73 373.717 1012.96 373.683 1012.2 373.615Z" fill="#9BC9E0"/>
<path d="M1039.11 350.359C1039.11 352.246 1038.87 354.124 1038.4 355.94L1035.35 358.943L1032.09 360.463C1033.63 357.405 1034.5 353.978 1034.5 350.359C1034.5 338.197 1024.71 328.205 1012.2 327.102C1012.96 327.034 1013.72 327 1014.5 327C1017.21 327 1019.81 327.417 1022.25 328.188C1029.59 330.503 1035.4 336.014 1037.85 342.973C1038.67 345.295 1039.11 347.779 1039.11 350.359V350.359Z" fill="#9BC9E0"/>
<path d="M1014.5 358.468C1009.79 358.468 1005.96 354.831 1005.96 350.359C1005.96 350.065 1005.97 349.775 1006 349.49L1003.68 351.699L1003.25 351.906L991.137 357.709C993.578 364.679 999.389 370.2 1006.73 372.524L1012.84 361.037L1013.07 360.61L1015.37 358.427C1015.08 358.454 1014.79 358.468 1014.5 358.468ZM1022.25 328.188L1021.43 329.724L1016.14 339.679L1015.93 340.066L1013.58 342.297C1013.88 342.266 1014.19 342.25 1014.5 342.25C1019.21 342.25 1023.04 345.887 1023.04 350.359C1023.04 350.636 1023.03 350.911 1023 351.181L1025.32 348.977L1025.75 348.772L1033.83 344.902L1037.85 342.973C1035.4 336.014 1029.59 330.503 1022.25 328.188V328.188Z" fill="#9BC9E0"/>
<path d="M1025.75 348.772C1025.02 344.078 1021.09 340.359 1016.14 339.679C1015.6 339.604 1015.06 339.566 1014.5 339.566C1014.03 339.566 1013.57 339.593 1013.12 339.646C1007.5 340.294 1003.13 344.851 1003.13 350.359C1003.13 350.884 1003.17 351.4 1003.25 351.906C1003.96 356.612 1007.89 360.345 1012.84 361.036C1012.93 361.049 1013.03 361.061 1013.12 361.071C1013.57 361.124 1014.03 361.151 1014.5 361.151C1020.77 361.151 1025.87 356.31 1025.87 350.359C1025.87 349.82 1025.83 349.29 1025.75 348.772ZM1008.01 350.359C1008.01 346.961 1010.92 344.196 1014.5 344.196C1018.08 344.196 1020.99 346.961 1020.99 350.359C1020.99 353.756 1018.08 356.521 1014.5 356.521C1010.92 356.521 1008.01 353.756 1008.01 350.359V350.359Z" fill="#325A93"/>
<path d="M1038 355.044C1037.75 354.894 1037.44 354.878 1037.17 355.002L1020.61 362.659C1020.32 362.796 1020.13 363.082 1020.13 363.396V376.802C1019.61 376.509 1019 376.341 1018.35 376.341C1016.41 376.341 1014.84 377.834 1014.84 379.67C1014.84 381.506 1016.41 383 1018.35 383C1020.28 383 1021.86 381.506 1021.86 379.67V368.612L1036.68 361.755V371.333C1036.16 371.04 1035.55 370.872 1034.9 370.872C1032.97 370.872 1031.4 372.366 1031.4 374.202C1031.4 376.037 1032.97 377.531 1034.9 377.531C1036.84 377.531 1038.41 376.037 1038.41 374.202V355.74C1038.41 355.457 1038.26 355.194 1038 355.044V355.044Z" fill="#3EB6FF"/>
<path d="M1037.85 342.973L1033.83 344.902C1032.17 338.323 1027.57 332.825 1021.43 329.724L1022.25 328.188C1029.59 330.503 1035.4 336.014 1037.85 342.973V342.973Z" fill="#79A6B7"/>
<path d="M1025.87 350.359C1025.87 356.31 1020.77 361.151 1014.5 361.151C1014.03 361.151 1013.57 361.124 1013.12 361.071C1018.75 360.424 1023.1 355.874 1023.1 350.358C1023.1 344.842 1018.75 340.293 1013.12 339.646C1013.57 339.593 1014.03 339.566 1014.5 339.566C1015.06 339.566 1015.6 339.604 1016.14 339.679C1021.09 340.359 1025.02 344.078 1025.75 348.772C1025.83 349.29 1025.87 349.82 1025.87 350.359Z" fill="#132D77"/>
</g>
<g clip-path="url(#clip3)">
<path d="M583.972 629.627L577.996 655.551C577.209 658.962 573.806 661.089 570.396 660.302L528.124 650.557C531.535 651.344 534.938 649.216 535.724 645.806L541.7 619.882C542.486 616.472 545.888 614.344 549.298 615.131L579.219 622.029C582.63 622.815 584.758 626.216 583.972 629.627Z" fill="#E48E66"/>
<path d="M578.112 620.448L577.822 621.706L549.299 615.131C545.888 614.344 542.486 616.471 541.7 619.882L535.724 645.806C534.938 649.216 531.535 651.343 528.124 650.556L527.474 650.407C524.063 649.621 521.935 646.218 522.721 642.808L532.051 602.338C532.838 598.927 536.24 596.801 539.651 597.587L553.506 600.782C555.24 601.181 556.726 602.292 557.602 603.841L560.746 609.412C560.965 609.799 561.336 610.078 561.771 610.178L573.359 612.849C576.77 613.635 578.898 617.037 578.112 620.448V620.448Z" fill="#6FE3FF"/>
<path d="M572.766 627.536C572.592 627.323 572.33 627.2 572.055 627.204L557.47 627.426C557.058 627.432 556.703 627.719 556.611 628.12L553.257 642.669C552.634 642.059 551.853 641.634 551.002 641.443C548.712 640.915 546.475 642.102 546.017 644.088C545.559 646.075 547.051 648.12 549.341 648.648C551.632 649.176 553.868 647.99 554.326 646.004L557.161 633.706L569.903 633.51L568.415 639.962C567.792 639.353 567.012 638.928 566.161 638.737C563.87 638.208 561.634 639.395 561.176 641.382C560.718 643.369 562.209 645.413 564.5 645.941C566.79 646.469 569.027 645.284 569.484 643.297L572.942 628.301C573.004 628.033 572.939 627.751 572.766 627.536Z" fill="#F8EC7D"/>
</g>
<g clip-path="url(#clip4)">
<path d="M709.123 182.13L743.183 175.592L752.493 224.096L718.433 230.634L709.123 182.13Z" fill="#6E83B7"/>
<path d="M746.417 192.441L761.613 189.524L767.689 221.18L752.493 224.096L746.417 192.441Z" fill="#6E83B7"/>
<path d="M746.417 192.441L747.727 192.189L753.803 223.845L752.493 224.096L746.417 192.441Z" fill="#466089"/>
<path d="M731.788 208.218C739.023 206.83 743.791 199.989 742.438 192.94C741.085 185.89 734.123 181.301 726.888 182.69C719.653 184.079 714.885 190.919 716.238 197.969C717.591 205.018 724.553 209.607 731.788 208.218Z" fill="#466089"/>
<path d="M731.543 206.942C738.055 205.692 742.346 199.536 741.128 193.191C739.911 186.847 733.645 182.717 727.133 183.966C720.622 185.216 716.33 191.373 717.548 197.717C718.766 204.062 725.032 208.192 731.543 206.942Z" fill="#D3D3D3"/>
<path d="M730.465 201.326C733.793 200.687 735.987 197.54 735.364 194.298C734.742 191.055 731.539 188.944 728.211 189.583C724.883 190.221 722.69 193.368 723.312 196.611C723.934 199.854 727.137 201.965 730.465 201.326Z" fill="#466089"/>
<path d="M756.906 206.045C759.8 205.489 761.708 202.753 761.166 199.933C760.625 197.113 757.84 195.278 754.946 195.833C752.052 196.389 750.145 199.125 750.686 201.945C751.227 204.764 754.012 206.6 756.906 206.045Z" fill="#466089"/>
<path d="M756.588 204.385C758.541 204.01 759.829 202.163 759.463 200.26C759.098 198.357 757.218 197.118 755.265 197.493C753.311 197.867 752.024 199.714 752.389 201.618C752.755 203.521 754.634 204.76 756.588 204.385Z" fill="#D3D3D3"/>
<path d="M756.171 202.215C756.895 202.076 757.372 201.392 757.236 200.687C757.101 199.982 756.405 199.524 755.681 199.662C754.958 199.801 754.481 200.485 754.616 201.19C754.752 201.895 755.448 202.354 756.171 202.215Z" fill="#466089"/>
<path d="M759.16 217.788C761.331 217.371 762.761 215.319 762.355 213.204C761.949 211.089 759.861 209.712 757.69 210.129C755.52 210.546 754.089 212.598 754.495 214.713C754.901 216.827 756.99 218.204 759.16 217.788Z" fill="#466089"/>
<path d="M718.433 230.634L703.236 233.55L697.161 201.895L712.357 198.978L718.433 230.634Z" fill="#6E83B7"/>
<path d="M711.047 199.229L712.357 198.978L718.433 230.633L717.123 230.885L711.047 199.229Z" fill="#466089"/>
<path d="M707.65 215.498C710.544 214.943 712.451 212.207 711.91 209.387C711.369 206.567 708.584 204.732 705.69 205.287C702.796 205.842 700.888 208.579 701.43 211.398C701.971 214.218 704.756 216.054 707.65 215.498Z" fill="#466089"/>
<path d="M707.331 213.839C709.285 213.464 710.572 211.617 710.207 209.714C709.841 207.81 707.962 206.571 706.008 206.946C704.055 207.321 702.767 209.168 703.133 211.072C703.498 212.975 705.378 214.214 707.331 213.839Z" fill="#D3D3D3"/>
<path d="M706.915 211.669C707.638 211.53 708.115 210.846 707.98 210.141C707.844 209.436 707.148 208.977 706.425 209.116C705.701 209.255 705.224 209.939 705.36 210.644C705.495 211.349 706.191 211.808 706.915 211.669Z" fill="#466089"/>
<path d="M709.903 227.241C712.074 226.825 713.504 224.773 713.099 222.658C712.693 220.543 710.604 219.166 708.434 219.583C706.263 219.999 704.833 222.052 705.238 224.166C705.644 226.281 707.733 227.658 709.903 227.241Z" fill="#466089"/>
<path d="M728.788 218.517C728.511 218.424 728.364 218.129 728.463 217.856C728.561 217.584 728.866 217.44 729.144 217.533C729.421 217.627 729.566 217.922 729.468 218.195C729.402 218.377 729.244 218.501 729.063 218.536C728.974 218.553 728.88 218.549 728.788 218.517V218.517Z" fill="#EDEFF1"/>
<path d="M737.632 216.622C737.44 216.406 737.465 216.077 737.688 215.887C737.911 215.697 738.248 215.719 738.44 215.935C738.632 216.15 738.607 216.48 738.384 216.669C738.31 216.732 738.224 216.771 738.134 216.789C737.954 216.823 737.76 216.766 737.632 216.622V216.622Z" fill="#EDEFF1"/>
<path d="M738.829 219.044C738.637 218.828 738.662 218.499 738.885 218.31C739.108 218.12 739.445 218.141 739.637 218.357C739.829 218.573 739.804 218.902 739.581 219.092C739.508 219.155 739.421 219.194 739.331 219.211C739.152 219.246 738.957 219.189 738.829 219.044V219.044Z" fill="#EDEFF1"/>
<path d="M730.119 216.133C729.927 215.917 729.953 215.588 730.176 215.398C730.399 215.208 730.736 215.23 730.927 215.447C731.119 215.662 731.094 215.991 730.871 216.18C730.798 216.244 730.712 216.283 730.622 216.3C730.442 216.334 730.249 216.277 730.119 216.133V216.133Z" fill="#EDEFF1"/>
<path d="M735.582 215.274C735.304 215.18 735.158 214.884 735.256 214.612C735.354 214.341 735.659 214.196 735.936 214.289C736.213 214.382 736.36 214.678 736.261 214.95C736.195 215.132 736.038 215.258 735.857 215.292C735.768 215.309 735.673 215.304 735.582 215.274Z" fill="#EDEFF1"/>
<path d="M732.485 214.702C732.431 214.42 732.622 214.147 732.911 214.091C733.201 214.036 733.479 214.219 733.533 214.501C733.587 214.783 733.398 215.056 733.108 215.112C732.819 215.168 732.541 214.984 732.485 214.702V214.702Z" fill="#EDEFF1"/>
<path d="M734.728 223.536C736.898 223.119 738.329 221.067 737.923 218.952C737.517 216.837 735.428 215.46 733.258 215.877C731.087 216.294 729.657 218.346 730.063 220.461C730.469 222.575 732.557 223.952 734.728 223.536Z" fill="#466089"/>
<path d="M733.772 218.558C734.279 218.461 734.613 217.982 734.518 217.488C734.423 216.995 733.936 216.674 733.429 216.771C732.923 216.868 732.589 217.347 732.684 217.84C732.779 218.334 733.266 218.655 733.772 218.558Z" fill="#FFB0AA"/>
<path d="M728.851 221.223C728.76 221.24 728.666 221.236 728.574 221.204C728.297 221.111 728.152 220.814 728.25 220.543C728.349 220.271 728.654 220.126 728.931 220.22C729.209 220.314 729.354 220.61 729.255 220.882C729.19 221.064 729.03 221.188 728.851 221.223Z" fill="#EDEFF1"/>
<path d="M739.168 182.98C739.892 182.841 740.369 182.157 740.233 181.452C740.098 180.747 739.402 180.288 738.678 180.427C737.955 180.566 737.478 181.25 737.613 181.955C737.749 182.66 738.445 183.119 739.168 182.98Z" fill="#466089"/>
<path d="M715.588 187.506C716.312 187.367 716.788 186.683 716.653 185.978C716.518 185.273 715.822 184.814 715.098 184.953C714.375 185.092 713.898 185.776 714.033 186.481C714.168 187.186 714.865 187.645 715.588 187.506Z" fill="#466089"/>
<path d="M743.578 205.956C744.302 205.817 744.778 205.133 744.643 204.428C744.508 203.723 743.812 203.264 743.088 203.403C742.365 203.542 741.888 204.226 742.023 204.931C742.158 205.636 742.855 206.095 743.578 205.956Z" fill="#466089"/>
<path d="M719.998 210.481C720.721 210.342 721.198 209.658 721.063 208.953C720.928 208.249 720.231 207.79 719.508 207.928C718.784 208.067 718.308 208.751 718.443 209.456C718.578 210.161 719.274 210.62 719.998 210.481Z" fill="#466089"/>
</g>
<g clip-path="url(#clip5)">
<path d="M423.649 355.357L424.605 358.926L420.64 359.988L419.684 356.42C419.668 356.361 419.653 356.303 419.636 356.244C419.622 356.193 419.608 356.14 419.593 356.089L419.588 356.07C419.564 355.987 419.54 355.906 419.515 355.824C417.874 350.32 414.221 345.933 409.582 343.253C408.265 342.493 406.869 341.87 405.416 341.4C401.569 340.15 397.327 339.963 393.129 341.088C381.562 344.187 374.698 356.076 377.798 367.643L378.683 370.947L374.718 372.009L373.833 368.705C372.45 363.546 372.735 358.334 374.356 353.639C374.356 353.639 377.528 343.104 390.663 338.638C390.692 338.627 390.721 338.617 390.75 338.607C390.955 338.537 391.163 338.471 391.373 338.403C391.399 338.395 391.425 338.387 391.451 338.38C391.659 338.314 391.869 338.251 392.082 338.19C392.162 338.166 392.242 338.143 392.324 338.12C392.473 338.079 392.622 338.037 392.772 337.997C405.414 334.609 415.664 342.571 415.664 342.571C419.414 345.827 422.267 350.198 423.649 355.357V355.357Z" fill="#DDDDDD"/>
<path d="M423.649 355.357L424.605 358.925L420.64 359.988L419.684 356.419C419.668 356.36 419.653 356.303 419.636 356.244C419.622 356.193 419.608 356.14 419.593 356.089L419.588 356.07C419.564 355.987 419.54 355.906 419.515 355.824C417.874 350.319 414.221 345.933 409.582 343.253C408.265 342.493 406.869 341.87 405.416 341.4C402.089 339.376 397.013 337.452 390.663 338.637C390.66 338.637 390.657 338.638 390.654 338.639C390.685 338.627 390.717 338.618 390.75 338.607C390.955 338.537 391.163 338.469 391.373 338.403C391.399 338.395 391.425 338.387 391.451 338.38C391.659 338.314 391.869 338.251 392.082 338.19C392.162 338.166 392.242 338.143 392.324 338.12C392.473 338.078 392.622 338.037 392.772 337.997C405.414 334.609 415.664 342.571 415.664 342.571C419.414 345.827 422.267 350.198 423.649 355.357V355.357Z" fill="#BCBCBC"/>
<path d="M375.743 393.061L384.507 392.683L382.553 380.106L377.956 368.237L370.178 372.292C368.188 373.329 367.185 375.609 367.766 377.777L370.912 389.517C371.493 391.685 373.501 393.158 375.743 393.061V393.061Z" fill="#BC95E2"/>
<path d="M416.916 380.305L419.757 380.476L419.632 370.407L414.588 361.184L412.212 362.753C411.475 363.239 411.132 364.143 411.361 364.996L415.056 378.788C415.285 379.641 416.034 380.252 416.916 380.305Z" fill="#544F57"/>
<path d="M392.138 386.944L389.762 388.513L385.223 379.06L384.593 369.221L387.435 369.392C388.317 369.445 389.065 370.056 389.294 370.909L392.99 384.701C393.218 385.554 392.875 386.458 392.138 386.944Z" fill="#544F57"/>
<path d="M388.294 394.926C386.652 395.366 384.964 394.391 384.524 392.749L377.939 368.172C377.499 366.53 378.473 364.842 380.115 364.402C381.757 363.962 383.445 364.936 383.885 366.578L390.47 391.156C390.91 392.798 389.936 394.486 388.294 394.926V394.926Z" fill="#FFE183"/>
<path d="M434.172 377.405L426.394 381.459L421.797 369.591L419.844 357.014L428.607 356.636C430.849 356.539 432.858 358.012 433.438 360.18L436.584 371.92C437.165 374.088 436.162 376.368 434.172 377.405Z" fill="#BC95E2"/>
<path d="M433.439 360.181L436.584 371.92C437.165 374.088 436.163 376.368 434.172 377.405L426.394 381.459L426.071 380.624L430.208 378.467C432.199 377.43 433.201 375.15 432.62 372.982L429.475 361.243C428.894 359.074 426.886 357.601 424.643 357.698L419.982 357.899L419.844 357.014L428.607 356.636C430.85 356.539 432.858 358.012 433.439 360.181V360.181Z" fill="#AC80DD"/>
<path d="M424.235 385.295C425.877 384.855 426.852 383.167 426.412 381.525L419.826 356.948C419.386 355.306 417.698 354.331 416.057 354.771C414.415 355.211 413.44 356.899 413.88 358.541L420.466 383.119C420.906 384.761 422.593 385.735 424.235 385.295Z" fill="#FFE183"/>
<path d="M416.261 342.109L413.353 346.008C412.197 344.954 410.931 344.031 409.582 343.253C404.777 340.478 398.913 339.537 393.129 341.087C385.723 343.072 380.244 348.661 378.075 355.461L373.607 353.538C371.824 352.768 371.026 350.665 371.878 348.921C375.542 341.422 382.31 335.489 391.005 333.159C395.352 331.994 399.732 331.85 403.892 332.581C408.05 333.311 411.988 334.915 415.449 337.246C417.06 338.33 417.42 340.551 416.261 342.109Z" fill="#FFE183"/>
<path d="M416.261 342.109L413.353 346.009C412.725 345.435 412.063 344.901 411.375 344.407L412.297 343.172C413.456 341.613 413.096 339.393 411.485 338.309C408.024 335.978 404.086 334.373 399.928 333.643C396.406 333.025 392.725 333.032 389.041 333.758C389.683 333.538 390.339 333.338 391.005 333.159C395.352 331.994 399.732 331.85 403.892 332.581C408.05 333.311 411.988 334.916 415.449 337.247C417.06 338.331 417.42 340.551 416.261 342.109Z" fill="#EDB762"/>
</g>
</g>
<defs>
<clipPath id="clip0">
<rect x="1325" y="563" width="53" height="50" fill="white"/>
</clipPath>
<clipPath id="clip1">
<rect x="1210.3" width="66" height="67" transform="rotate(12.3244 1210.3 0)" fill="white"/>
</clipPath>
<clipPath id="clip2">
<rect x="985" y="327" width="59" height="56" fill="white"/>
</clipPath>
<clipPath id="clip3">
<rect x="533.743" y="595" width="56.7242" height="56.7242" transform="rotate(12.9821 533.743 595)" fill="white"/>
</clipPath>
<clipPath id="clip4">
<rect x="691" y="176.873" width="68.297" height="66.5457" transform="rotate(-10.8647 691 176.873)" fill="white"/>
</clipPath>
<clipPath id="clip5">
<rect x="357" y="337.597" width="67.989" height="67.989" transform="rotate(-15 357 337.597)" fill="white"/>
</clipPath>
</defs>
</svg>
