<svg id="Layer_1" enable-background="new 0 0 512 512" height="512" viewBox="0 0 512 512" width="512" xmlns="http://www.w3.org/2000/svg"><g><g><path d="m500.333 256c0-62.991-24.53-122.211-69.07-166.752-44.541-44.541-103.762-69.071-166.753-69.071l-29.843 243.281 29.843 228.365c62.991 0 122.212-24.53 166.753-69.071 44.54-44.541 69.07-103.761 69.07-166.752z" fill="#474f54"/><path d="m264.51 20.177c-62.99 0-122.211 24.53-166.752 69.071s-69.07 103.761-69.07 166.752 24.529 122.211 69.07 166.752 103.762 69.071 166.752 69.071z" fill="#566066"/></g><g><g><path d="m279.51 140.69v-60.69h-15l-8.51 60.69z" fill="#566066"/><path d="m249.51 80h15v60.69h-15z" fill="#69767d"/></g><g><path d="m279.51 432v-75.527h-23.51l8.51 75.527z" fill="#566066"/><path d="m249.51 356.473h15v75.527h-15z" fill="#69767d"/></g></g><g><path d="m383.309 256c0-65.506-53.293-118.798-118.799-118.798l-8.51 123.271 8.51 114.325c65.506 0 118.799-53.292 118.799-118.798z" fill="#fc3636"/><path d="m264.51 137.202c-65.506 0-118.798 53.293-118.798 118.798 0 65.506 53.292 118.798 118.798 118.798z" fill="#fc5b3f"/></g><g><path d="m298.205 256c0-18.579-15.115-33.694-33.695-33.694l-8.51 38.167 8.51 29.221c18.58 0 33.695-15.115 33.695-33.694z" fill="#f7f0eb"/><path d="m230.816 256c0 18.579 15.115 33.694 33.694 33.694v-67.388c-18.579 0-33.694 15.115-33.694 33.694z" fill="#fffbf5"/></g><g><path d="m512 207.139-30-14.691v-169.659h30z" fill="#efe2dd"/><path d="m467.966 249.667c-24.28 0-44.034-19.754-44.034-44.034s19.754-44.034 44.034-44.034 44.034 19.754 44.034 44.034-19.754 44.034-44.034 44.034z" fill="#0dca71"/></g><g><path d="m88.068 441.806-30-14.692v-169.658h30z" fill="#efe2dd"/><path d="m44.034 484.333c-24.28 0-44.034-19.753-44.034-44.034s19.754-44.034 44.034-44.034 44.034 19.754 44.034 44.034-19.754 44.034-44.034 44.034z" fill="#0dca71"/></g></g></svg>